<?xml version="1.0" encoding="iso-8859-1"?>
<!-- Generator: Adobe Illustrator 19.0.0, SVG Export Plug-In . SVG Version: 6.00 Build 0)  -->
<svg version="1.1" id="Layer_1" xmlns="http://www.w3.org/2000/svg" xmlns:xlink="http://www.w3.org/1999/xlink" x="0px" y="0px"
	 viewBox="0 0 496 496" style="enable-background:new 0 0 496 496;" xml:space="preserve">
<g>
	<g>
		<g>
			<rect x="240" y="256" width="16" height="16"/>
			<path d="M384,304v-16h32c44.112,0,80-35.888,80-80c0-39.24-28-72.144-66.024-78.792c-6.088-22.504-25.368-38.784-48.624-40.96
				C370.304,36.728,325.336,0,272,0c-41.352,0-79.312,23.008-98.696,59.216C166.424,57.08,159.288,56,152,56
				c-33.888,0-62.944,23.728-70.208,56.216C36.16,115.416,0,153.56,0,200c0,48.52,39.48,88,88,88h24v16h128v80h-48v-64H48v176h144
				v-96h112v96h144V320H304v64h-48v-80H384z M176,480h-16v-16h-16v16h-16v-16h-16v16H96v-16H80v16H64v-32h112V480z M176,432H64v-96
				h112V432z M320,336h112v96H320V336z M320,448h112v32h-16v-16h-16v16h-16v-16h-16v16h-16v-16h-16v16h-16V448z M368,288h-16v-32
				h-16v32h-16v-32h-16v32h-24.208c5.08-6.704,8.208-14.96,8.208-24c0-9.04-3.128-17.296-8.208-24H368V288z M112,272H88
				c-39.696,0-72-32.312-72-72.008C16,160.304,48.272,128,88.168,128c0.008,0,0.024,0,0.04,0l7.368,0.328l0.912-7.304
				C99.968,93.064,123.832,72,152,72c7.664,0,15.104,1.536,22.12,4.56l7.216,3.112l3.24-7.152C200.112,38.176,234.424,16,272,16
				c47.64,0,87.488,34.184,94.752,81.288l1.08,7.024L376,104c19.728,0,36.32,14.144,39.44,33.632l0.976,6.072l6.12,0.624
				C455.296,147.648,480,175.016,480,208c0,35.288-28.712,64-64,64h-32v-48H112V272z M216.208,288H192v-32h-16v32h-16v-32h-16v32
				h-16v-48h88.208c-5.08,6.704-8.208,14.96-8.208,24C208,273.04,211.128,281.296,216.208,288z M248,288c-13.232,0-24-10.768-24-24
				s10.768-24,24-24s24,10.768,24,24S261.232,288,248,288z"/>
		</g>
	</g>
</g>
<g>
</g>
<g>
</g>
<g>
</g>
<g>
</g>
<g>
</g>
<g>
</g>
<g>
</g>
<g>
</g>
<g>
</g>
<g>
</g>
<g>
</g>
<g>
</g>
<g>
</g>
<g>
</g>
<g>
</g>
</svg>
